<?xml version="1.0" encoding="utf-8"?>
<!-- Generator: Adobe Illustrator 27.5.0, SVG Export Plug-In . SVG Version: 6.00 Build 0)  -->
<svg version="1.1" xmlns="http://www.w3.org/2000/svg" xmlns:xlink="http://www.w3.org/1999/xlink" x="0px" y="0px"
	 viewBox="0 0 500 500" style="enable-background:new 0 0 500 500;" xml:space="preserve">
<g id="Floor">
	<path id="Floor_00000120535352384033679500000006853818072521152950_" style="fill:#FAFAFA;" d="M77.661,235.601
		c-95.177,54.951-95.175,144.044,0.005,198.995c95.18,54.951,249.496,54.951,344.674,0c95.178-54.951,95.175-144.044-0.005-198.995
		C327.154,180.65,172.838,180.65,77.661,235.601z"/>
</g>
<g id="Shadows">
	<polygon id="Shadow_22_" style="fill:#E0E0E0;" points="323.033,413.365 110.414,290.609 176.133,252.667 388.751,375.422 	"/>
	<path id="Shadow_60_" style="fill:#E0E0E0;" d="M120.166,365.842c14.469,8.448,14.469,22.145,0,30.593
		c-14.47,8.448-37.93,8.448-52.399,0c-14.469-8.447-14.469-22.145,0.001-30.592C82.237,357.394,105.697,357.394,120.166,365.842z"/>
</g>
<g id="Stairs_00000177462763633540408160000017881910687580664964_">
	<g id="Stairs">
		<g id="Strairs">
			<polygon style="fill:#BA68C8;" points="142.234,147.947 142.235,187.09 194.95,156.642 194.967,117.502 			"/>
			<g>
				<polygon style="fill:#BA68C8;" points="142.235,187.09 202.5,221.884 255.247,191.444 194.95,156.642 				"/>
				<polygon style="opacity:0.3;fill:#FFFFFF;" points="142.235,187.09 202.5,221.884 255.247,191.444 194.95,156.642 				"/>
			</g>
			<polygon style="fill:#BA68C8;" points="255.247,191.444 255.233,230.583 202.5,261.028 202.5,221.884 			"/>
			<g>
				<polygon style="fill:#BA68C8;" points="202.5,261.028 262.765,295.822 315.497,265.377 255.232,230.583 				"/>
				<polygon style="opacity:0.3;fill:#FFFFFF;" points="202.5,261.028 262.765,295.822 315.497,265.377 255.232,230.583 				"/>
			</g>
			<polygon style="fill:#BA68C8;" points="315.497,265.377 315.497,304.521 262.765,334.965 262.765,295.822 			"/>
			<g>
				<polygon style="fill:#BA68C8;" points="262.765,334.965 323.031,369.759 375.762,339.316 315.496,304.522 				"/>
				<polygon style="opacity:0.3;fill:#FFFFFF;" points="262.765,334.965 323.031,369.759 375.762,339.316 315.496,304.522 				"/>
			</g>
			<polygon style="fill:#BA68C8;" points="375.762,339.316 375.763,378.458 323.031,408.902 323.031,369.759 			"/>
		</g>
		<g>
			<polygon style="fill:#BA68C8;" points="142.234,147.947 85.736,115.327 66.903,126.201 74.436,78.359 157.301,74.01 
				138.468,84.883 194.967,117.502 			"/>
			<polygon style="opacity:0.3;fill:#FFFFFF;" points="142.234,147.947 85.736,115.327 66.903,126.201 74.436,78.359 157.301,74.01 
				138.468,84.883 194.967,117.502 			"/>
		</g>
		<g>
			<polygon style="fill:#BA68C8;" points="262.765,334.965 262.765,295.822 202.5,261.028 202.5,221.884 142.234,187.09 
				142.234,147.947 85.736,115.327 66.903,126.201 66.903,134.899 85.736,124.026 134.701,152.294 134.702,191.439 194.967,226.235 
				194.967,265.377 255.232,300.17 255.233,339.314 315.498,374.108 315.498,404.553 323.031,408.902 323.031,369.759 			"/>
			<polygon style="opacity:0.3;" points="262.765,334.965 262.765,295.822 202.5,261.028 202.5,221.884 142.234,187.09 
				142.234,147.947 85.736,115.327 66.903,126.201 66.903,134.899 85.736,124.026 134.701,152.294 134.702,191.439 194.967,226.235 
				194.967,265.377 255.232,300.17 255.233,339.314 315.498,374.108 315.498,404.553 323.031,408.902 323.031,369.759 			"/>
		</g>
		<g>
			<polygon style="fill:#BA68C8;" points="157.301,74.01 157.301,82.708 146,89.232 138.468,84.883 			"/>
			<polygon style="opacity:0.3;" points="157.301,74.01 157.301,82.708 146,89.232 138.468,84.883 			"/>
		</g>
	</g>
</g>
<g id="Footprints_00000163074111875071249920000006297639288276734399_">
	<g id="Footprints">
		<g>
			<path style="fill:#FFFFFF;" d="M173.932,179.398c0.019,0,0.038-0.001,0.059-0.006c0.934-0.188,1.91-0.262,2.887-0.218
				c0.167-0.005,0.301-0.119,0.309-0.282c0.007-0.163-0.119-0.301-0.283-0.309c-1.017-0.045-2.049,0.032-3.03,0.23
				c-0.16,0.032-0.263,0.188-0.231,0.348C173.671,179.301,173.795,179.398,173.932,179.398z M168.115,184.341
				c0-0.718,0.202-1.387,0.601-1.987c0.09-0.136,0.053-0.319-0.082-0.41c-0.137-0.089-0.319-0.053-0.41,0.082
				c-0.464,0.699-0.7,1.478-0.7,2.313c-0.002,0.387,0.049,0.793,0.151,1.207c0.033,0.135,0.154,0.225,0.287,0.225
				c0.023,0,0.047-0.003,0.071-0.008c0.158-0.039,0.255-0.199,0.216-0.358C168.159,185.038,168.113,184.68,168.115,184.341z
				 M174.583,192.536c-0.423-0.249-0.819-0.5-1.186-0.75c-0.438-0.299-0.887-0.644-1.335-1.025
				c-0.124-0.107-0.311-0.092-0.416,0.033c-0.106,0.124-0.092,0.311,0.033,0.417c0.463,0.396,0.929,0.753,1.385,1.064
				c0.376,0.257,0.784,0.514,1.218,0.771c0.047,0.028,0.099,0.041,0.15,0.041c0.101,0,0.199-0.052,0.255-0.146
				C174.77,192.8,174.724,192.619,174.583,192.536z M178.35,194.499c-0.932-0.44-1.785-0.867-2.535-1.268
				c-0.142-0.078-0.323-0.025-0.4,0.121c-0.078,0.144-0.023,0.323,0.121,0.4c0.758,0.407,1.62,0.838,2.561,1.282
				c0.041,0.019,0.084,0.029,0.126,0.029c0.111,0,0.217-0.062,0.267-0.169C178.561,194.745,178.497,194.568,178.35,194.499z
				 M168.846,186.928c-0.076-0.145-0.256-0.2-0.399-0.122c-0.144,0.076-0.199,0.255-0.122,0.4c0.492,0.931,1.194,1.876,2.087,2.808
				c0.058,0.06,0.135,0.091,0.213,0.091c0.074,0,0.147-0.027,0.205-0.082c0.118-0.112,0.122-0.299,0.008-0.418
				C169.983,188.712,169.313,187.811,168.846,186.928z M172.775,179.395c-0.052-0.155-0.222-0.237-0.375-0.184
				c-0.48,0.163-0.954,0.359-1.409,0.582c-0.574,0.282-1.084,0.592-1.514,0.923c-0.129,0.099-0.154,0.285-0.054,0.414
				c0.058,0.076,0.146,0.116,0.234,0.116c0.063,0,0.126-0.02,0.18-0.062c0.4-0.306,0.875-0.596,1.414-0.86
				c0.433-0.212,0.883-0.398,1.34-0.554C172.746,179.717,172.829,179.549,172.775,179.395z M201.146,195.617
				c0.844,0.477,1.665,0.921,2.452,1.342c0.045,0.023,0.092,0.035,0.139,0.035c0.105,0,0.208-0.057,0.261-0.156
				c0.077-0.144,0.022-0.323-0.122-0.4c-0.783-0.418-1.6-0.861-2.44-1.335c-0.142-0.08-0.322-0.03-0.403,0.112
				C200.954,195.357,201.004,195.537,201.146,195.617z M208.476,199.634c0.433,0.265,0.807,0.511,1.145,0.754c0,0,0,0,0,0
				c0.385,0.277,0.736,0.566,1.042,0.857c0.057,0.054,0.13,0.081,0.203,0.081c0.079,0,0.156-0.031,0.215-0.092
				c0.112-0.118,0.107-0.305-0.012-0.418c-0.326-0.309-0.697-0.614-1.103-0.907v0c0,0,0-0.001-0.001-0.001
				c-0.349-0.251-0.735-0.506-1.182-0.779c-0.137-0.085-0.321-0.042-0.406,0.098C208.292,199.367,208.336,199.548,208.476,199.634z
				 M178.326,179.315c0.924,0.14,1.876,0.377,2.831,0.705c0.032,0.011,0.065,0.016,0.096,0.016c0.122,0,0.237-0.077,0.279-0.199
				c0.053-0.155-0.029-0.322-0.183-0.376c-0.989-0.339-1.976-0.586-2.934-0.731c-0.167-0.026-0.313,0.086-0.337,0.248
				C178.054,179.14,178.165,179.291,178.326,179.315z M198.734,194.197c0.404,0.249,0.804,0.49,1.201,0.722
				c0.047,0.028,0.099,0.041,0.149,0.041c0.101,0,0.2-0.052,0.255-0.146c0.083-0.141,0.035-0.322-0.105-0.404
				c-0.393-0.231-0.789-0.469-1.188-0.716c-0.46-0.284-0.927-0.607-1.387-0.961c-0.13-0.098-0.315-0.075-0.415,0.055
				c-0.099,0.129-0.075,0.315,0.055,0.415C197.773,193.568,198.256,193.903,198.734,194.197z M192.144,188.116l0.219,0.243
				c0.059,0.065,0.139,0.098,0.22,0.098c0.07,0,0.141-0.025,0.197-0.075c0.122-0.109,0.132-0.296,0.023-0.417l-0.219-0.244
				c-0.686-0.765-1.395-1.555-2.107-2.294c-0.113-0.117-0.3-0.121-0.418-0.007c-0.117,0.113-0.121,0.3-0.007,0.418
				C190.757,186.568,191.462,187.355,192.144,188.116z M195.959,192.085c0.056,0.051,0.127,0.076,0.198,0.076
				c0.081,0,0.161-0.033,0.219-0.098c0.109-0.122,0.1-0.308-0.022-0.417c-0.726-0.654-1.489-1.421-2.403-2.411
				c-0.109-0.12-0.297-0.127-0.417-0.017c-0.12,0.11-0.128,0.297-0.017,0.417C194.443,190.639,195.218,191.418,195.959,192.085z
				 M187.56,183.547c0.422,0.331,0.841,0.69,1.282,1.098c0.057,0.052,0.129,0.079,0.201,0.079c0.079,0,0.158-0.032,0.217-0.095
				c0.111-0.119,0.104-0.306-0.016-0.418c-0.453-0.42-0.884-0.79-1.32-1.13c0,0,0,0,0,0c0,0,0-0.001-0.001-0.001
				c-0.345-0.269-0.753-0.571-1.215-0.887c-0.135-0.091-0.319-0.057-0.411,0.077c-0.092,0.135-0.058,0.319,0.077,0.411
				C186.826,182.99,187.223,183.284,187.56,183.547C187.56,183.547,187.56,183.547,187.56,183.547z M201.142,205.872
				c-0.56-0.255-1.112-0.546-1.64-0.867c-0.385-0.234-0.76-0.474-1.138-0.723c-0.135-0.089-0.319-0.052-0.41,0.085
				c-0.089,0.136-0.051,0.319,0.085,0.41c0.384,0.252,0.766,0.497,1.157,0.734c0.548,0.333,1.121,0.636,1.702,0.901
				c0.04,0.018,0.082,0.026,0.122,0.026c0.112,0,0.219-0.065,0.269-0.173C201.356,206.115,201.29,205.94,201.142,205.872z
				 M206.504,207.061c-1.171,0.037-2.381-0.145-3.629-0.528c-0.161-0.051-0.321,0.04-0.37,0.196
				c-0.048,0.156,0.039,0.322,0.195,0.369c1.205,0.37,2.388,0.558,3.519,0.558c0.101,0,0.202-0.001,0.303-0.004
				c0.163-0.005,0.291-0.142,0.286-0.305C206.804,207.184,206.646,207.049,206.504,207.061z M182.244,196.236
				c-0.891-0.381-1.763-0.762-2.605-1.142c-0.147-0.066-0.324-0.001-0.391,0.148c-0.067,0.148-0.001,0.324,0.148,0.391
				c0.845,0.382,1.722,0.764,2.616,1.147c0.038,0.016,0.077,0.024,0.116,0.024c0.115,0,0.224-0.067,0.272-0.179
				C182.463,196.473,182.394,196.299,182.244,196.236z M212.02,201.903c-0.092-0.133-0.276-0.167-0.411-0.074
				c-0.134,0.092-0.167,0.277-0.074,0.411c0.383,0.552,0.577,1.079,0.577,1.566c0,0.257-0.055,0.508-0.165,0.744
				c-0.068,0.148-0.003,0.324,0.145,0.393c0.04,0.018,0.082,0.027,0.124,0.027c0.112,0,0.219-0.064,0.269-0.172
				c0.145-0.315,0.219-0.649,0.219-0.992C212.704,203.196,212.473,202.556,212.02,201.903z M211.157,205.507
				c-0.302,0.244-0.68,0.478-1.123,0.695c-0.546,0.267-1.123,0.475-1.716,0.619c-0.158,0.038-0.256,0.198-0.218,0.356
				c0.032,0.135,0.153,0.226,0.287,0.226c0.023,0,0.046-0.002,0.069-0.008c0.636-0.153,1.254-0.376,1.838-0.662
				c0.483-0.237,0.898-0.495,1.234-0.766c0.127-0.103,0.147-0.289,0.045-0.416C211.47,205.424,211.283,205.405,211.157,205.507z
				 M207.568,198.419c-0.754-0.422-1.579-0.861-2.46-1.327c-0.143-0.078-0.322-0.022-0.4,0.122
				c-0.077,0.144-0.021,0.323,0.122,0.399c0.876,0.465,1.698,0.901,2.448,1.321c0.046,0.025,0.096,0.038,0.145,0.038
				c0.103,0,0.204-0.055,0.258-0.151C207.761,198.679,207.71,198.499,207.568,198.419z M194.937,202.049
				c-0.139-0.085-0.321-0.041-0.406,0.099c-0.085,0.139-0.041,0.321,0.099,0.406c0.861,0.523,1.626,1.031,2.276,1.466
				c0.051,0.034,0.108,0.05,0.165,0.05c0.095,0,0.189-0.046,0.245-0.131c0.091-0.136,0.055-0.319-0.081-0.41
				C196.581,203.09,195.809,202.578,194.937,202.049z M185.284,181.932c0.1,0,0.199-0.052,0.254-0.144
				c0.083-0.14,0.038-0.322-0.102-0.406c-0.882-0.527-1.783-0.989-2.679-1.376c-0.152-0.065-0.324,0.005-0.389,0.155
				c-0.065,0.15,0.005,0.324,0.155,0.389c0.873,0.376,1.75,0.827,2.61,1.34C185.18,181.918,185.232,181.932,185.284,181.932z
				 M186.186,197.885c-0.881-0.365-1.763-0.729-2.631-1.095c-0.151-0.062-0.323,0.007-0.387,0.158
				c-0.063,0.15,0.007,0.323,0.158,0.387c0.87,0.366,1.751,0.732,2.634,1.097c0.037,0.015,0.075,0.022,0.113,0.022
				c0.116,0,0.226-0.068,0.273-0.182C186.408,198.12,186.337,197.947,186.186,197.885z M193.754,201.358
				c-0.777-0.436-1.572-0.849-2.431-1.262c-0.144-0.071-0.323-0.009-0.394,0.139c-0.071,0.147-0.009,0.323,0.139,0.394
				c0.847,0.407,1.631,0.814,2.398,1.245c0.046,0.025,0.095,0.038,0.145,0.038c0.103,0,0.203-0.055,0.258-0.151
				C193.948,201.618,193.897,201.438,193.754,201.358z M190.074,199.52c-0.399-0.178-0.817-0.359-1.256-0.542l-1.316-0.548
				c-0.15-0.062-0.323,0.009-0.386,0.16c-0.062,0.151,0.009,0.324,0.16,0.386l1.315,0.547c0.434,0.182,0.848,0.361,1.244,0.537
				c0.038,0.017,0.08,0.025,0.12,0.025c0.113,0,0.221-0.065,0.27-0.175C190.291,199.762,190.224,199.587,190.074,199.52z"/>
			<path style="fill:#FFFFFF;" d="M255.332,254.995c-0.523-0.194-1.024-0.392-1.499-0.593c-0.44-0.188-0.93-0.407-1.442-0.657
				c-0.146-0.073-0.324-0.012-0.395,0.136c-0.072,0.147-0.011,0.323,0.136,0.395c0.522,0.254,1.021,0.478,1.469,0.669
				c0.483,0.206,0.994,0.407,1.526,0.604c0.034,0.012,0.068,0.018,0.102,0.018c0.12,0,0.233-0.074,0.277-0.193
				C255.564,255.221,255.485,255.052,255.332,254.995z M255.21,243.171c-0.005-0.16-0.136-0.287-0.296-0.287
				c-0.002,0-0.005,0-0.008,0c-1.309,0.036-2.526,0.195-3.618,0.474c-0.158,0.04-0.254,0.201-0.213,0.36
				c0.034,0.134,0.154,0.222,0.286,0.222c0.024,0,0.049-0.003,0.073-0.009c1.049-0.268,2.222-0.421,3.488-0.456
				C255.086,243.47,255.214,243.334,255.21,243.171z M259.953,256.512c-1.064-0.323-2.106-0.648-3.096-0.981
				c-0.154-0.055-0.322,0.032-0.374,0.186c-0.052,0.155,0.032,0.322,0.186,0.374c0.995,0.334,2.042,0.66,3.111,0.985
				c0.029,0.009,0.058,0.013,0.086,0.013c0.127,0,0.244-0.082,0.283-0.209C260.197,256.724,260.109,256.559,259.953,256.512z
				 M250.985,253.014c-1.029-0.574-1.908-1.158-2.613-1.735c-0.125-0.104-0.311-0.085-0.416,0.042
				c-0.103,0.126-0.085,0.313,0.042,0.416c0.731,0.6,1.639,1.203,2.699,1.793c0.046,0.025,0.095,0.038,0.144,0.038
				c0.103,0,0.204-0.055,0.258-0.152C251.179,253.274,251.128,253.094,250.985,253.014z M260.326,243.333
				c-1.245-0.222-2.456-0.364-3.601-0.423c-0.169-0.008-0.303,0.117-0.31,0.279c-0.009,0.163,0.116,0.302,0.279,0.31
				c1.121,0.059,2.308,0.199,3.528,0.416c0.018,0.003,0.035,0.005,0.052,0.005c0.141,0,0.266-0.101,0.291-0.244
				C260.594,243.514,260.487,243.361,260.326,243.333z M264.63,257.92c-0.967-0.299-1.949-0.591-2.926-0.883l-0.193-0.058
				c-0.16-0.048-0.321,0.043-0.368,0.199c-0.047,0.156,0.042,0.321,0.199,0.368l0.194,0.058c0.975,0.291,1.956,0.583,2.921,0.881
				c0.028,0.009,0.059,0.013,0.087,0.013c0.126,0,0.243-0.082,0.283-0.209C264.873,258.134,264.786,257.968,264.63,257.92z
				 M278.467,253.316c0.054,0.044,0.119,0.066,0.185,0.066c0.086,0,0.172-0.038,0.23-0.111c0.102-0.127,0.082-0.313-0.045-0.415
				c-0.897-0.721-1.794-1.435-2.691-2.124c-0.129-0.1-0.316-0.076-0.414,0.054c-0.1,0.129-0.075,0.315,0.054,0.414
				C276.679,251.888,277.574,252.599,278.467,253.316z M246.309,248.082c0-0.174,0.021-0.35,0.065-0.523
				c0.039-0.158-0.058-0.319-0.216-0.358c-0.159-0.035-0.318,0.059-0.358,0.216c-0.054,0.218-0.082,0.442-0.082,0.664
				c0,0.819,0.368,1.664,1.094,2.513c0.059,0.068,0.142,0.103,0.225,0.103c0.068,0,0.136-0.023,0.192-0.071
				c0.124-0.106,0.139-0.292,0.032-0.417C246.63,249.472,246.309,248.757,246.309,248.082z M265.58,244.681
				c-1.135-0.382-2.307-0.713-3.481-0.985c-0.165-0.039-0.319,0.063-0.355,0.221c-0.037,0.159,0.062,0.318,0.221,0.355
				c1.157,0.268,2.31,0.594,3.428,0.97c0.031,0.011,0.063,0.015,0.094,0.015c0.123,0,0.239-0.078,0.28-0.202
				C265.819,244.9,265.735,244.733,265.58,244.681z M286.799,259.181c0.84,0.453,1.64,0.852,2.403,1.232
				c0.042,0.021,0.087,0.031,0.132,0.031c0.108,0,0.213-0.06,0.265-0.164c0.072-0.146,0.013-0.323-0.133-0.396
				c-0.757-0.376-1.552-0.773-2.386-1.222c-0.142-0.076-0.322-0.025-0.4,0.12C286.602,258.925,286.655,259.104,286.799,259.181z
				 M271.626,248.236c0.869,0.556,1.784,1.19,2.797,1.937c0.053,0.039,0.115,0.058,0.176,0.058c0.09,0,0.18-0.042,0.238-0.12
				c0.097-0.132,0.069-0.316-0.062-0.413c-1.024-0.755-1.95-1.396-2.829-1.959c-0.136-0.088-0.32-0.048-0.408,0.089
				C271.449,247.966,271.489,248.148,271.626,248.236z M246.864,246.407c0.081,0,0.162-0.033,0.22-0.098
				c0.299-0.335,0.69-0.667,1.161-0.986c0.001-0.001,0.001-0.001,0.002-0.002c0.466-0.317,0.978-0.597,1.523-0.83
				c0.15-0.065,0.22-0.239,0.156-0.388c-0.066-0.151-0.239-0.219-0.389-0.156c-0.579,0.249-1.124,0.547-1.62,0.884
				c-0.001,0.001-0.003,0.001-0.004,0.002c-0.51,0.347-0.937,0.711-1.269,1.081c-0.109,0.122-0.098,0.309,0.023,0.417
				C246.723,246.383,246.794,246.407,246.864,246.407z M294.245,262.766c-0.12-0.11-0.306-0.102-0.417,0.017
				c-0.111,0.12-0.103,0.307,0.017,0.417c0.814,0.751,1.227,1.47,1.227,2.14v0.042c0,0.163,0.132,0.275,0.296,0.275
				c0.163,0,0.296-0.154,0.296-0.317C295.663,264.498,295.186,263.632,294.245,262.766z M290.229,268.566
				c-1.127,0.117-2.388,0.033-3.689-0.245c-0.165-0.031-0.316,0.069-0.351,0.228c-0.034,0.159,0.069,0.316,0.228,0.351
				c0.963,0.205,1.902,0.309,2.791,0.309c0.369,0,0.734-0.018,1.083-0.055c0.162-0.017,0.28-0.162,0.263-0.325
				C290.536,268.668,290.398,268.556,290.229,268.566z M285.914,258.01c-0.794-0.46-1.532-0.924-2.258-1.421
				c-0.135-0.091-0.319-0.057-0.411,0.077c-0.092,0.135-0.058,0.319,0.077,0.411c0.739,0.505,1.489,0.977,2.295,1.444
				c0.047,0.027,0.098,0.04,0.149,0.04c0.102,0,0.201-0.053,0.256-0.147C286.104,258.272,286.055,258.091,285.914,258.01z
				 M284.737,267.827c-0.595-0.2-1.179-0.432-1.736-0.689c-0.001,0-0.001-0.001-0.003-0.002c-0.404-0.186-0.809-0.392-1.218-0.613
				c-0.142-0.077-0.322-0.025-0.4,0.12c-0.078,0.143-0.024,0.323,0.12,0.4c0.42,0.227,0.836,0.437,1.251,0.63
				c0.001,0,0.003,0,0.004,0.001c0.576,0.267,1.18,0.507,1.795,0.714c0.031,0.011,0.063,0.015,0.094,0.015
				c0.124,0,0.239-0.078,0.28-0.202C284.976,268.047,284.892,267.879,284.737,267.827z M292.934,262.408
				c0.094,0,0.187-0.045,0.244-0.129c0.092-0.135,0.058-0.319-0.077-0.411c-0.376-0.257-0.79-0.509-1.232-0.753
				c-0.001-0.001-0.002-0.001-0.003-0.001c-0.387-0.213-0.785-0.42-1.195-0.628c-0.147-0.075-0.324-0.016-0.397,0.129
				c-0.074,0.146-0.016,0.323,0.129,0.397c0.404,0.205,0.798,0.409,1.179,0.619c0.001,0.001,0.001,0.001,0.002,0.002
				c0.425,0.233,0.823,0.476,1.184,0.722C292.818,262.391,292.876,262.408,292.934,262.408z M294.635,266.495
				c-0.233,0.299-0.563,0.596-0.981,0.88c-0.494,0.336-1.043,0.608-1.631,0.809c-0.155,0.052-0.237,0.22-0.184,0.375
				c0.042,0.123,0.156,0.2,0.279,0.2c0.031,0,0.064-0.005,0.095-0.016c0.638-0.217,1.235-0.513,1.773-0.88
				c0.469-0.319,0.844-0.657,1.115-1.005c0.1-0.129,0.077-0.315-0.051-0.415C294.922,266.343,294.737,266.366,294.635,266.495z
				 M280.583,265.845c-0.747-0.443-1.523-0.928-2.349-1.448c-0.137-0.088-0.32-0.045-0.407,0.093
				c-0.087,0.138-0.045,0.32,0.093,0.407c0.831,0.523,1.611,1.011,2.361,1.456c0.048,0.029,0.099,0.042,0.151,0.042
				c0.101,0,0.199-0.052,0.254-0.145C280.769,266.109,280.723,265.928,280.583,265.845z M270.471,246.842
				c-0.52-0.298-1.034-0.571-1.527-0.812c-0.493-0.241-1.053-0.487-1.665-0.73c-0.155-0.059-0.324,0.015-0.384,0.165
				c-0.06,0.152,0.014,0.324,0.165,0.384c0.599,0.237,1.145,0.476,1.623,0.711c0.483,0.236,0.985,0.503,1.493,0.794
				c0.046,0.027,0.097,0.039,0.147,0.039c0.102,0,0.202-0.053,0.256-0.149C270.662,247.104,270.613,246.923,270.471,246.842z
				 M273.488,261.523c-0.393-0.222-0.797-0.447-1.216-0.673c-0.444-0.24-0.942-0.483-1.481-0.723
				c-0.151-0.065-0.324,0.001-0.39,0.15c-0.066,0.149,0.001,0.324,0.15,0.39c0.525,0.233,1.009,0.47,1.439,0.703
				c0.416,0.225,0.817,0.446,1.207,0.667c0.045,0.026,0.095,0.039,0.146,0.039c0.102,0,0.202-0.054,0.257-0.15
				C273.681,261.784,273.631,261.604,273.488,261.523z M277.061,263.661c-0.741-0.463-1.527-0.946-2.37-1.443
				c-0.139-0.082-0.321-0.036-0.405,0.105c-0.082,0.141-0.036,0.322,0.105,0.405c0.838,0.494,1.619,0.975,2.358,1.436
				c0.049,0.03,0.102,0.045,0.156,0.045c0.099,0,0.195-0.049,0.251-0.139C277.242,263.93,277.2,263.748,277.061,263.661z
				 M282.387,256.345c0.09,0,0.179-0.042,0.238-0.12c0.097-0.131,0.069-0.316-0.062-0.413c-0.346-0.256-0.7-0.527-1.058-0.813
				l-1.333-1.07c-0.126-0.102-0.313-0.082-0.416,0.045c-0.102,0.128-0.082,0.313,0.045,0.416l1.336,1.071
				c0.363,0.29,0.723,0.566,1.075,0.827C282.264,256.327,282.325,256.345,282.387,256.345z M269.272,259.497
				c-0.9-0.348-1.909-0.703-3.086-1.084c-0.159-0.051-0.323,0.035-0.372,0.189c-0.051,0.155,0.035,0.322,0.189,0.373
				c1.167,0.379,2.167,0.73,3.056,1.074c0.035,0.014,0.071,0.02,0.106,0.02c0.119,0,0.23-0.072,0.276-0.189
				C269.5,259.727,269.424,259.555,269.272,259.497z"/>
		</g>
		<g>
			<path style="fill:#E0E0E0;" d="M371.452,423.948c7.449-3.645,15.275,1.162,18.396,3.603c4.261,3.333,7.43,8.739,12.339,11.768
				c4.909,3.029,9.421,4.956,12.069,6.865c2.648,1.909,4.719,4.887,0.411,6.995c-4.308,2.108-9.011,0.457-11.971-1.339
				c-2.961-1.796-5.402-3.985-11.781-6.65c-6.379-2.665-13.241-5.344-17.127-7.992C369.9,434.552,363.823,427.68,371.452,423.948z"
				/>
			<path style="opacity:0.8;fill:#BA68C8;" d="M290.542,335.002c6.73-3.293,13.8,1.05,16.62,3.255
				c3.85,3.012,6.713,7.895,11.148,10.632c4.435,2.737,8.512,4.478,10.904,6.203c2.393,1.725,4.263,4.415,0.372,6.32
				c-3.892,1.904-8.141,0.413-10.816-1.21s-4.881-3.6-10.644-6.008c-5.764-2.408-11.963-4.828-15.474-7.22
				C289.14,344.581,283.65,338.374,290.542,335.002z"/>
			<path style="fill:#E0E0E0;" d="M381.649,392.028c-6.312,4.301,2.013,8.819,6.241,10.621c5.773,2.46,15.136,4.29,20.382,7.124
				c5.246,2.834,8.584,5.439,11.891,6.968c3.307,1.529,8.465,2.725,12.115,0.237c3.651-2.487,0.792-5.202-2.319-6.912
				s-6.901-3.119-11.518-6.802c-4.616-3.683-9.256-7.645-13.842-9.888C400.014,391.132,388.113,387.624,381.649,392.028z"/>
		</g>
	</g>
</g>
<g id="Arrows_00000035506585709894292120000015511268143604488637_">
	<g id="Arrow_00000059272302910399687030000017707202151960500393_">
		<g>
			<polygon style="fill:#F5F5F5;" points="38.289,318.036 38.289,182.397 36.459,183.455 26.222,177.545 47.504,137.712 
				58.069,143.811 78.244,159.329 66.513,166.102 66.513,313.85 48.777,324.091 			"/>
			<path style="fill:#E6E6E6;" d="M47.796,138.732l9.82,5.669l19.304,14.841l-10.406,6.008l-0.738,0.426v0.852v146.895l-17,9.815
				l-9.749-5.628l0.001-133.934v-2.556l-2.214,1.278l-0.355,0.205l-9.251-5.34L47.796,138.732 M47.214,136.692l-21.979,41.134
				l11.225,6.48l1.092-0.631l-0.001,134.786l11.225,6.48l18.476-10.667V166.529l12.317-7.111l-21.13-16.245L47.214,136.692
				L47.214,136.692z"/>
		</g>
		<polygon id="Down_Arrow_00000117674020413838155230000000055834364915662214_" style="fill:#EBEBEB;" points="48.776,324.943 
			67.252,314.276 67.252,166.529 79.569,159.417 58.439,143.172 36.459,184.307 48.776,177.196 		"/>
		<polygon style="fill:#E0E0E0;" points="37.551,318.462 48.776,324.943 48.776,177.196 37.552,183.676 		"/>
	</g>
	<g id="Arrow_00000152955900766492378430000013620302122786364815_">
		<g>
			<polygon style="fill:#F5F5F5;" points="86.887,306.083 86.887,215.926 85.157,216.926 75.482,211.34 95.596,173.693 
				105.582,179.457 124.65,194.124 113.562,200.525 113.562,302.126 96.799,311.806 			"/>
			<path style="fill:#E6E6E6;" d="M95.873,174.658l9.281,5.358l18.244,14.027l-9.835,5.678l-0.697,0.403v0.805v100.795L96.799,311
				l-9.214-5.32l0.001-88.546v-2.416l-2.092,1.208l-0.335,0.194l-8.743-5.047L95.873,174.658 M95.322,172.729l-20.773,38.877
				l10.609,6.125l1.032-0.596l-0.001,89.351l10.609,6.125l17.462-10.081V200.929l11.641-6.721l-19.971-15.354L95.322,172.729
				L95.322,172.729z"/>
		</g>
		<polygon id="Down_Arrow_00000139975555030635601050000016157873782064750257_" style="fill:#EBEBEB;" points="96.799,312.611 
			114.26,302.529 114.26,200.929 125.902,194.208 105.931,178.854 85.158,217.731 96.799,211.01 		"/>
		<polygon style="fill:#E0E0E0;" points="86.189,306.486 96.799,312.611 96.799,211.01 86.19,217.135 		"/>
	</g>
	<g id="Arrows">
		<g id="Arrow_7_">
			<polygon style="fill:#455A64;" points="206.2,418.856 217.372,425.305 235.76,414.689 235.76,319.475 248.018,312.397 
				226.988,296.229 215.816,289.78 193.941,330.719 205.113,337.168 206.201,336.541 			"/>
			<polygon id="Down_Arrow_4_" style="fill:#37474F;" points="217.372,425.305 235.76,414.689 235.76,319.475 248.018,312.397 
				226.988,296.229 205.113,337.168 217.372,330.091 			"/>
			<polygon style="fill:#263238;" points="206.2,418.856 217.372,425.305 217.372,330.091 206.201,336.541 			"/>
		</g>
		<g id="Arrow_6_">
			<polygon style="fill:#BA68C8;" points="165.746,416.707 174.118,421.54 187.898,413.584 187.898,360.431 197.085,355.128 
				181.325,343.011 172.952,338.178 156.559,368.858 164.931,373.691 165.746,373.221 			"/>
			<polygon style="opacity:0.1;fill:#FFFFFF;" points="164.931,373.691 181.325,343.011 172.952,338.178 156.559,368.858 			"/>
			<polygon id="Down_Arrow" style="fill:#BA68C8;" points="174.118,421.54 187.898,413.584 187.898,360.431 197.085,355.128 
				181.325,343.011 164.931,373.691 174.118,368.387 			"/>
			<polygon id="Down_Arrow_5_" style="opacity:0.1;" points="174.118,421.54 187.898,413.584 187.898,360.431 197.085,355.128 
				181.325,343.011 164.931,373.691 174.118,368.387 			"/>
			<polygon style="opacity:0.3;" points="165.746,416.707 174.118,421.54 174.118,368.387 165.746,373.221 			"/>
		</g>
	</g>
	<g id="Arrows_00000111894815486745993040000004406049879696930182_">
		<g id="Arrow_00000008866667442829727020000006083238275024117382_">
			<polygon style="fill:#BA68C8;" points="464.807,350.159 453.35,356.773 434.493,345.886 434.493,206.007 421.922,198.749 
				443.488,182.168 454.945,175.554 477.378,217.538 465.921,224.152 464.806,223.508 			"/>
			<polygon style="opacity:0.8;fill:#FFFFFF;" points="464.807,350.159 453.35,356.773 434.493,345.886 434.493,206.007 
				421.922,198.749 443.488,182.168 454.945,175.554 477.378,217.538 465.921,224.152 464.806,223.508 			"/>
			<polygon id="Down_Arrow_00000140704836327184853180000010825219679965582226_" style="fill:#BA68C8;" points="453.35,356.773 
				434.493,345.886 434.493,206.007 421.922,198.749 443.488,182.168 465.921,224.152 453.35,216.894 			"/>
			<polygon id="Down_Arrow_3_" style="opacity:0.7;fill:#FFFFFF;" points="453.35,356.773 434.493,345.886 434.493,206.007 
				421.922,198.749 443.488,182.168 465.921,224.152 453.35,216.894 			"/>
			<polygon style="fill:#BA68C8;" points="464.807,350.159 453.35,356.773 453.35,216.894 464.806,223.508 			"/>
			<polygon style="opacity:0.5;fill:#FFFFFF;" points="464.807,350.159 453.35,356.773 453.35,216.894 464.806,223.508 			"/>
		</g>
	</g>
</g>
<g id="Plants">
	<g id="Plant_3_">
		<g id="Pot_3_">
			<g id="Pot_19_">
				<path id="XMLID_5092_" style="fill:#37474F;" d="M124.978,354.054l-62.032-0.012l6.414,26.72h0.008
					c0.489,3.222,2.86,6.366,7.131,8.832c9.647,5.569,25.288,5.569,34.935,0c4.597-2.654,6.977-6.094,7.193-9.571L124.978,354.054z"
					/>
				<path style="fill:#263238;" d="M117.412,372.367c1.406-0.812,2.632-1.686,3.723-2.599l3.491-14.275
					c-1.593,1.796-3.678,3.483-6.276,4.986c-13.086,7.554-34.059,7.744-47.589,0.615l1.577-6.365l-0.484-0.672l-8.905-0.002
					l6.411,26.707h0.008c0.489,3.222,2.86,6.366,7.131,8.832c6.872,3.968,16.778,5.093,25.4,3.408
					c-15.455,1.152-26.059-5.605-27.649-11.834c-0.634-2.485-1.741-7.985-1.741-7.985C85.417,379.738,105.08,379.48,117.412,372.367
					z"/>
				<path id="XMLID_5090_" style="fill:#455A64;" d="M128.204,346.149c-0.32,1.64-1.01,3.261-2.071,4.822
					c-1.671,2.521-4.271,4.882-7.783,6.912c-13.465,7.773-35.302,7.773-48.767,0c-3.511-2.031-6.112-4.391-7.783-6.912
					c-1.05-1.56-1.741-3.181-2.06-4.822h-0.01c-1.201-5.842,2.091-11.934,9.854-16.416c13.465-7.783,35.302-7.783,48.767,0
					C126.113,334.215,129.404,340.307,128.204,346.149z"/>
				<path id="XMLID_5089_" style="fill:#37474F;" d="M126.133,350.971c-1.671,2.521-4.271,4.882-7.783,6.912
					c-13.465,7.773-35.302,7.773-48.767,0c-3.511-2.031-6.112-4.391-7.783-6.912c-1.05-1.56-1.741-3.181-2.06-4.822h-0.01
					l1.53,10.514c0.7,4.232,3.851,8.353,9.473,11.594c12.835,7.403,33.632,7.403,46.466,0c5.542-3.201,8.693-7.272,9.443-11.444
					l0.08-0.54l1.48-10.123C127.883,347.79,127.193,349.411,126.133,350.971z"/>
				<path id="XMLID_5072_" style="fill:#263238;" d="M114.289,332.075c-11.224-6.482-29.42-6.482-40.634,0
					c-6.352,3.671-9.104,8.623-8.273,13.405c0.64,3.672,3.401,7.242,8.273,10.053c11.214,6.482,29.41,6.482,40.634,0
					c4.862-2.811,7.623-6.382,8.263-10.043C123.392,340.698,120.641,335.746,114.289,332.075z"/>
				<path id="XMLID_5071_" style="fill:#FAFAFA;" d="M67.278,349.923c1.403,2.042,3.515,3.959,6.377,5.61
					c11.214,6.482,29.41,6.482,40.634,0c2.857-1.652,4.968-3.57,6.37-5.611c-0.083-3.882-2.682-7.743-7.809-10.707
					c-10.429-6.023-27.336-6.023-37.756,0C69.963,342.181,67.364,346.045,67.278,349.923z"/>
			</g>
			<g id="Plants_3_">
				<g id="XMLID_776_">
					<path style="fill:#BA68C8;" d="M78.378,250.845l16.37,16.585l-16.541-10.232c0,0-1.201,8.791,1.017,16.977
						c0,0,8.003,6.202,12.465,11.342l-12.789-6.95c0,0-2.002,8.744,0.033,22.704c0.533,3.656,3.683,10.897,5.578,16.252
						c0.854,2.428,1.868,4.845,3.08,7.216c0.066,0.15,0.144,0.291,0.219,0.443c3.288-1.382,6.69-2.698,10.204-3.941
						c2.715-4.281,6.901-15.157,9.041-24.222c8.163-34.704-15.972-58.111-36.532-67.482
						C70.523,229.538,76.745,239.648,78.378,250.845z"/>
					<path style="fill:#FFFFFF;" d="M93.353,254.166c3.246,4.171,4.814,9.335,5.876,14.431c1.041,5.134,1.456,10.384,1.359,15.612
						c-0.181,10.454-2.66,20.895-7.567,30.076l-0.006,0.011c-0.133,0.25-0.039,0.561,0.211,0.695
						c0.251,0.134,0.562,0.039,0.695-0.211c0.001-0.002,0.003-0.006,0.004-0.007c4.848-9.438,7.164-20.03,7.176-30.556
						c0.012-5.265-0.492-10.534-1.621-15.673C98.331,263.446,96.669,258.285,93.353,254.166z"/>
				</g>
				<g>
					<path style="fill:#BA68C8;" d="M153.226,270.988c0,0-0.008,0.013-0.026,0.029c-0.43,0.62-7.489,10.789-17.562,30.238
						l-19.311,4.97l14.692,1.187l-6.624,13.014l-18.923,5.777l15.293,1.056c0,0-2.821,15.089-13.038,22.217
						c-5.64,3.935-8.214,4.254-10.446,3.187c-2.726-1.304-4.346-5.41-5.97-11.607c-1.625-6.196-0.615-19.111,4.181-32.008
						c1.274-3.43,3.1-6.651,5.334-9.648C113.623,282.187,139.875,272.029,153.226,270.988z"/>
					<path style="opacity:0.1;" d="M153.226,270.988c0,0-0.008,0.013-0.026,0.029c-0.43,0.62-7.489,10.789-17.562,30.238
						l-19.311,4.97l14.692,1.187l-6.624,13.014l-18.923,5.777l15.293,1.056c0,0-2.821,15.089-13.038,22.217
						c-5.64,3.935-8.214,4.254-10.446,3.187c-2.726-1.304-4.346-5.41-5.97-11.607c-1.625-6.196-0.615-19.111,4.181-32.008
						c1.274-3.43,3.1-6.651,5.334-9.648C113.623,282.187,139.875,272.029,153.226,270.988z"/>
					<path style="fill:#FFFFFF;" d="M133.311,279.302c-9.725,5.386-18.753,12.376-25.524,21.358
						c-3.41,4.452-6.175,9.424-8.052,14.727c-1.812,5.321-2.785,10.919-2.774,16.504c0,0.03,0.024,0.055,0.055,0.055
						c0.028,0,0.051-0.023,0.054-0.05c0.613-5.539,1.73-10.979,3.69-16.138c1.873-5.18,4.512-10.081,7.728-14.578
						c6.52-8.972,15.319-16.132,24.877-21.783c0.026-0.015,0.035-0.048,0.02-0.074C133.37,279.297,133.337,279.288,133.311,279.302z
						"/>
				</g>
				<path style="fill:#BA68C8;" d="M32.655,267.577L32.655,267.577c1.739,0.107,3.69,0.358,5.8,0.752
					c6.329,1.179,14.086,3.632,21.822,7.269c2.579,1.212,5.155,2.556,7.676,4.028c1.26,0.736,2.506,1.504,3.732,2.304
					c6.128,3.999,11.738,8.789,15.992,14.319c2.103,2.726,3.85,5.65,5.19,8.743c0.174,0.402,0.367,0.798,0.527,1.207
					c0.001,0.003,0.002,0.005,0.003,0.008c0.413,1.059,0.775,2.094,1.114,3.118c3.996,11.531,3.771,19.287,2.75,27.823
					c-0.792,6.62-3.681,14.025-5.076,15.163c-0.191,0.156-0.398,0.278-0.614,0.381c-1.993,1.049-4.945,0.096-10.312-3.519
					c-10.754-7.243-13.855-23.588-13.855-23.588l15.897-1.361l-19.793-5.688l-7.117-13.431l15.27-1.487l-20.183-4.842
					c-10.816-20.069-18.336-30.531-18.795-31.169C32.663,267.59,32.655,267.577,32.655,267.577L32.655,267.577z"/>
				<path style="fill:#BA68C8;" d="M38.455,268.329c6.329,1.179,14.086,3.632,21.822,7.269c2.579,1.212,5.155,2.556,7.676,4.028
					c1.26,0.736,2.506,1.504,3.732,2.304c6.128,3.999,11.738,8.789,15.992,14.319c2.103,2.726,3.85,5.65,5.19,8.743
					c0.174,0.402,0.367,0.798,0.527,1.207c0.001,0.003,0.002,0.005,0.003,0.008c0.413,1.059,0.775,2.094,1.114,3.118
					c3.996,11.531,3.771,19.287,2.75,27.823c-0.792,6.62-3.681,14.025-5.076,15.163c-0.191,0.156-0.398,0.278-0.614,0.381
					c-0.383,0.202-0.816,0.305-1.279,0.354c2.245-10.181-0.651-36.708-7.427-48.082c-7.05-11.834-24.629-29.606-50.181-37.356
					l0.023-0.025C34.433,267.69,36.365,267.939,38.455,268.329z"/>
				<path style="opacity:0.2;" d="M38.455,268.329c6.329,1.179,14.086,3.632,21.822,7.269c2.579,1.212,5.155,2.556,7.676,4.028
					c1.26,0.736,2.506,1.504,3.732,2.304c6.128,3.999,11.738,8.789,15.992,14.319c2.103,2.726,3.85,5.65,5.19,8.743
					c0.174,0.402,0.367,0.798,0.527,1.207c0.001,0.003,0.002,0.005,0.003,0.008c0.413,1.059,0.775,2.094,1.114,3.118
					c3.996,11.531,3.771,19.287,2.75,27.823c-0.792,6.62-3.681,14.025-5.076,15.163c-0.191,0.156-0.398,0.278-0.614,0.381
					c-0.383,0.202-0.816,0.305-1.279,0.354c2.245-10.181-0.651-36.708-7.427-48.082c-7.05-11.834-24.629-29.606-50.181-37.356
					l0.023-0.025C34.433,267.69,36.365,267.939,38.455,268.329z"/>
				<path style="fill:#FFFFFF;" d="M90.356,353.055c1.186-7.558,1.205-15.276,0.413-22.893c-0.888-7.599-2.546-15.187-5.761-22.221
					c-3.296-7.04-8.381-12.991-13.871-18.343c-5.615-5.249-11.86-9.832-18.641-13.385c-0.031-0.017-0.07-0.005-0.087,0.027
					c-0.016,0.029-0.005,0.066,0.022,0.084c6.391,4.179,12.428,8.851,17.813,14.2c2.726,2.634,5.314,5.418,7.647,8.4
					c2.365,2.953,4.551,6.067,6.189,9.461c3.262,6.825,5.045,14.326,6.05,21.854c0.957,7.546,1.113,15.23,0.099,22.798
					c-0.005,0.035,0.019,0.067,0.054,0.073C90.318,353.114,90.351,353.09,90.356,353.055z"/>
			</g>
		</g>
	</g>
</g>
<g id="Speech_Bubble">
	<g id="Speech_Bubble_00000098220944157204026310000004534984616428573591_">
		<g id="Bubble_6_">
			<g id="Target_1_">
				<g id="Target">
					<g id="XMLID_490_">
						<path id="XMLID_507_" style="fill:#BA68C8;" d="M264.863,43.975c4.562-2.641,10.866-2.266,17.833,1.756
							c13.924,8.04,25.211,27.592,25.209,43.671c-0.001,8.068-2.846,13.724-7.438,16.344c-1.195,0.682-6.021,3.596-7.225,4.292
							c-4.562,2.638-10.863,2.261-17.825-1.759c-13.922-8.039-25.209-27.591-25.209-43.671c0-8.035,2.82-13.678,7.379-16.312"/>
						<path id="XMLID_00000124153166663253917530000012049492514542986431_" style="opacity:0.5;fill:#FFFFFF;" d="M264.863,43.975
							c4.562-2.641,10.866-2.266,17.833,1.756c13.924,8.04,25.211,27.592,25.209,43.671c-0.001,8.068-2.846,13.724-7.438,16.344
							c-1.195,0.682-6.021,3.596-7.225,4.292c-4.562,2.638-10.863,2.261-17.825-1.759c-13.922-8.039-25.209-27.591-25.209-43.671
							c0-8.035,2.82-13.678,7.379-16.312"/>
						<path id="XMLID_498_" style="opacity:0.2;fill:#FFFFFF;" d="M304.227,72.129c2.333,5.761,3.678,11.723,3.677,17.273
							l-32.485,18.88c-0.001-0.001-0.002-0.001-0.003-0.002c-4.804-2.774-9.294-6.92-13.115-11.821L304.227,72.129z"/>
						<path id="XMLID_492_" style="opacity:0.3;fill:#FFFFFF;" d="M262.301,96.459c-7.252-9.3-12.093-21.32-12.093-31.85
							c0-8.035,2.82-13.678,7.379-16.312l7.276-4.321c4.562-2.641,10.866-2.266,17.833,1.756
							c9.119,5.265,17.105,15.467,21.531,26.397L262.301,96.459z"/>
					</g>
					<path id="XMLID_489_" style="fill:#BA68C8;" d="M275.42,50.052c13.922,8.044,25.211,27.592,25.209,43.671
						c-0.002,16.078-11.29,22.596-25.213,14.556c-13.923-8.039-25.223-27.591-25.209-43.671
						C250.221,48.532,261.509,42.015,275.42,50.052z"/>
					<path id="XMLID_00000074408880329118678550000012566919999603306115_" style="fill:#FAFAFA;" d="M275.419,57.326
						c10.445,6.031,18.912,20.698,18.911,32.76c-0.001,12.061-8.469,16.95-18.913,10.919c-10.444-6.031-18.911-20.698-18.911-32.76
						C256.506,56.183,264.974,51.295,275.419,57.326z"/>
					<path id="XMLID_00000103955661574913577660000001939876908361538199_" style="fill:#BA68C8;" d="M275.419,63.947
						c7.279,4.203,13.178,14.423,13.177,22.828c-0.001,8.405-5.902,11.812-13.179,7.609c-7.278-4.202-13.178-14.423-13.178-22.828
						S268.14,59.744,275.419,63.947z"/>
					<path id="XMLID_481_" style="fill:#FAFAFA;" d="M275.419,70.742c4.029,2.326,7.294,7.984,7.294,12.636
						c-0.001,4.652-3.267,6.538-7.295,4.212c-4.028-2.326-7.294-7.983-7.294-12.636C268.124,70.301,271.39,68.415,275.419,70.742z"
						/>
					<path id="XMLID_00000138569153029053016260000002083644198204340624_" style="fill:#BA68C8;" d="M275.418,75.612
						c1.7,0.981,3.077,3.368,3.077,5.33c0,1.963-1.378,2.758-3.077,1.777c-1.699-0.981-3.077-3.368-3.077-5.33
						C272.341,75.426,273.719,74.631,275.418,75.612z"/>
				</g>
				<g id="Arrow_2_">
					<g>
						<path style="fill:#37474F;" d="M240.015,99.633c0,0-0.614,7.765-4.201,9.836c-3.587,2.071-5.535-4.214-3.209-5.557
							L240.015,99.633z"/>
						<g>
							<path style="fill:#455A64;" d="M240.015,99.633c0,0-7.032-3.35-10.619-1.279c-3.587,2.071,0.882,6.901,3.208,5.557
								L240.015,99.633z"/>
						</g>
					</g>
					<g>
						<polygon style="fill:#263238;" points="267.959,84.403 227.32,107.868 226.543,106.493 268.082,82.508 						"/>
					</g>
					<path style="fill:#263238;" d="M228.281,104.941c1.11,0.641,1.491,2.061,0.85,3.172c-0.641,1.111-2.061,1.491-3.172,0.85
						c-1.111-0.641-1.491-2.061-0.85-3.172C225.75,104.68,227.17,104.3,228.281,104.941z"/>
					<g>
						<path style="fill:#BA68C8;" d="M267.164,83.909c-1.487,1.963,1.206,5.356,1.206,5.356l7.008-10.099L267.164,83.909z"/>
						<path style="fill:#37474F;" d="M267.164,83.909c-1.487,1.963,1.206,5.356,1.206,5.356l7.008-10.099L267.164,83.909z"/>
						<path style="fill:#455A64;" d="M263.129,80.186c0,0,1.592,4.029,4.036,3.722l8.214-4.742L263.129,80.186z"/>
					</g>
				</g>
			</g>
			<g>
				<path style="fill:#BA68C8;" d="M289.892,109.859c1.018,1.728,2.854,3.993,6.123,6.07c3.068,1.956,6.699,2.344,9.191,2.318
					c0.161,0,0.308-0.04,0.429-0.107c0.496-0.295,7.154-4.119,7.275-4.186c0.509-0.295,0.59-1.099-0.013-1.447
					c-5.735-3.376-7.302-8.213-7.651-11.509L289.892,109.859z"/>
				<path style="opacity:0.3;fill:#FFFFFF;" d="M289.892,109.859c1.018,1.728,2.854,3.993,6.123,6.07
					c3.068,1.956,6.699,2.344,9.191,2.318c0.161,0,0.308-0.04,0.429-0.107c0.496-0.295,7.154-4.119,7.275-4.186
					c0.509-0.295,0.59-1.099-0.013-1.447c-5.735-3.376-7.302-8.213-7.651-11.509L289.892,109.859z"/>
				<path style="fill:#BA68C8;" d="M298.052,101.518c0,0-1.937,9.582,7.566,15.174c0.733,0.431,0.445,1.551-0.405,1.558
					c-2.503,0.021-6.125-0.365-9.203-2.318c-6.509-4.128-7.32-9.008-7.32-9.008L298.052,101.518z"/>
			</g>
		</g>
	</g>
</g>
<g id="Character">
	<g id="Character_00000016759327490985158310000003004247202881265575_">
		<g id="Bottom_00000000901227246181479940000013366066027453684354_">
			<g>
				<g>
					<path style="fill:#FFBDA7;" d="M410.73,361.249c-1.341-3.896-2.056-13.468-3.419-23.802l-20.472,4.922
						c0,0,7.788,23.697,8.729,26.051C397.115,372.293,410.73,361.249,410.73,361.249z"/>
					<g>
						<path style="fill:#455A64;" d="M415.493,366.249c-0.179-1.607-1.29-3.552-2.265-4.839c-0.43-0.568-0.988-0.967-1.455-1.479
							c-0.537-0.589-0.786-1.574-1.105-2.297c-0.132-0.299-0.266-0.602-0.481-0.848c-0.341-0.391-0.846-0.598-1.348-0.73
							c-2.236-0.591-4.61,0.033-6.764,0.875c-2.923,1.143-5.734,2.734-7.838,5.063c-0.825,0.913-0.885,1.629-0.61,2.768
							c0.427,1.771,1.976,8.804,1.936,10.498c-0.064,2.738-0.119,4.112-1.062,6.683c-0.296,0.807-0.603,1.468-0.878,1.985
							c-0.441,0.831-1.303,1.361-2.244,1.374c-1.562,0.021-4.308,0.308-7.243,1.768c-4.068,2.024-3.063,5.903-3.063,5.903
							s0.434,2.805,4.646,5.304c2.411,1.43,8.096,3.11,11.647,1.972c0.255-0.095,0.481-0.177,0.71-0.288
							c3.895-1.832,13.509-6.591,13.605-7.306c0.005-0.039-0.019-0.077-0.016-0.116c0.187-2.296,0.417-4.587,0.646-6.879
							c0.141-1.415,0.477-3.716,0.789-5.103c0.163-0.725,0.286-1.454,0.401-2.222C413.954,375.317,415.535,366.626,415.493,366.249z
							"/>
						<path id="XMLID_3660_" d="M416.804,367.795c1.683,0.834,0.347,6.213-1.12,9.983c-1.78,4.577-2.522,5.298-2.27,9.311
							c0.252,4.013,0.349,6.525-1.318,7.859c-1.667,1.334-13.571,7.135-13.571,7.135s2.908-5.921,3.908-14.693
							c1-8.772,2-14.394,6.23-18.086C412.893,365.613,416.804,367.795,416.804,367.795z"/>
						<path id="XMLID_00000156550372691328617630000007992166047660263312_" style="fill:#37474F;" d="M381.074,392.973
							c0,0,2.201,4.592,10.813,6.339c5.467,1.109,8.155-1.462,8.834-8.282c0.736-7.4,1.695-16.525,4.589-20.469
							c2.895-3.944,7.25-5.181,10.182-4.422c0.919,0.505,1.459,1.266,1.644,1.926c0,0-3.327-2.332-7.954,1.613
							c-3.752,3.198-4.759,11.164-5.433,17.883c-0.674,6.72-1.558,14.499-6.774,14.914c-5.216,0.416-12.049-2.178-15.238-5.41
							C379.902,395.204,381.074,392.973,381.074,392.973z"/>
						<g>
							<path id="XMLID_3658_" style="fill:#FAFAFA;" d="M394.023,382.998c0,0-0.725,0.416-0.86,1.186
								c-0.134,0.77,0.034,2.576,1.602,3.681c0.664,0.468,1.273,0.351,0.26-1.155C394.012,385.205,394.023,382.998,394.023,382.998z
								"/>
							<path id="XMLID_3657_" style="fill:#FAFAFA;" d="M395.288,378.99c0,0-0.468,0.381-0.546,0.994
								c-0.078,0.613,0.816,3.231,1.987,3.888c1.17,0.657,0.624-0.786,0.113-1.477C396.331,381.704,395.288,378.99,395.288,378.99z"
								/>
							<path id="XMLID_3656_" style="fill:#FAFAFA;" d="M395.471,374.108c0,0-0.354,0.619-0.184,1.466
								c0.108,0.54,2.096,2.112,2.879,2.108c0.783-0.004,1.108-0.436,0.077-1.003C397.43,376.23,395.711,374.85,395.471,374.108z"/>
						</g>
					</g>
				</g>
				<path style="fill:#37474F;" d="M405.831,189.572c1.462,9.38,2.115,16.423,0.454,39.873c-0.731,10.323-3.837,54.768-3.837,54.768
					s4.207,13.541,4.768,28.712c0.6,16.212,1.813,36.127,1.813,36.127s-3.406-2.295-10.108-0.368
					c-5.404,1.554-8.662,6.16-8.662,6.16s-8.459-24.662-13.314-42.425c-3.394-12.419-5.72-16.505-7.603-33.551
					c-2.312-20.934-6.077-50.351-6.077-50.351l-11.586-38.923L405.831,189.572z"/>
				<path style="fill:#263238;" d="M376.64,238.753c-6.37,5.621-7.736,10.305-8.083,13.678c-0.348,3.365,1.65,33.275,1.65,33.4
					c-0.291-2.048-0.575-4.34-0.865-6.962c-2.31-20.918-6.072-50.305-6.077-50.349l0-0.002l-11.585-38.923h36.667l-3.093,22.333
					C386.185,221.515,383.011,233.132,376.64,238.753z"/>
			</g>
			<g>
				<g>
					<path style="fill:#263238;" d="M335.421,349.664c0.457,2.022,1.012,3.542-0.858,5.962c-1.869,2.42-5.901,3.728-9.911,3.603
						c-3.514-0.11-5.729-1.59-7.765-3.171c-2.314-1.796-3.94-3.364-4.808-4.106c-0.867-0.742-4.322-1.692-7.596-2.351
						c-3.447-0.694-10.082-2.134-13.456-7.061c-3.374-4.928-2.788-9.232-2.788-9.232L335.421,349.664z"/>
					<path style="fill:#455A64;" d="M310.076,330.183c7.053,2.425,17.775,3.903,24.167,5.598c1.921,1.786,1.505,9.889,1.525,15.351
						c-2.448,5.621-10.276,7.056-15.465,4.813c-2.694-1.482-4.489-3.577-7.137-5.196c-2.095-1.28-4.324-1.843-6.806-2.383
						c-2.273-0.495-6.197-1.642-8.138-2.449c-6.928-3.175-10.377-9.076-9.964-13.867c0.362-4.205,3.137-7.171,10.016-6.135
						C301.341,326.377,305.225,328.515,310.076,330.183z"/>
					<path style="fill:#E0E0E0;" d="M317.294,332.037c-1.254-1.632-3.66-0.663-5.544,1.635c-1.884,2.298-2.38,6.004-2.153,6.683
						c0.227,0.679,1.132,1.248,1.393,0.29c0.261-0.958,0.715-4.187,2.203-6.151c1.548-2.044,3.599-2.585,3.599-2.585
						L317.294,332.037z"/>
					<path style="fill:#E0E0E0;" d="M308.356,329.56c-1.124-1.647-3.862-0.862-5.809,1.259c-1.947,2.12-2.555,4.943-2.373,5.612
						c0.182,0.669,1.027,1.269,1.331,0.356c0.304-0.913,1.045-3.367,2.591-5.186c1.608-1.893,3.78-2.213,3.78-2.213L308.356,329.56z
						"/>
					<path style="fill:#E0E0E0;" d="M312.386,330.91c-1.124-1.647-3.505-0.84-5.451,1.28c-1.947,2.12-2.628,5.678-2.446,6.348
						c0.182,0.669,1.027,1.269,1.331,0.356s0.919-4.011,2.465-5.83c1.608-1.893,3.622-2.305,3.622-2.305L312.386,330.91z"/>
					<path style="fill:#FFBDA7;" d="M334.464,330.183c0,0.224-0.299,7.475-0.299,7.475s-0.656,2.847-6.946,3.644
						c-6.289,0.797-10.88-1.585-12.077-3.26c0,0-0.769-7.51-1.143-10.647L334.464,330.183z"/>
				</g>
				<path style="fill:#37474F;" d="M388.346,206.601c-0.687,10.795-5.269,24.769-20.846,35.307
					c-7.102,5.498-12.262,11.023-18.142,16.847c-7.29,7.22-12.415,11.608-12.415,11.608s1.692,10.947,1.005,25.608
					c-0.687,14.661-3.313,34.087-3.313,34.087s-4.842,3.832-11.67,3.171c-6.827-0.662-9.288-3.222-9.288-3.222
					s-6.758-45.23-7.675-54.164c-0.916-8.934-2.649-14.058,5.027-28.449c5.972-11.196,32.319-57.801,32.319-57.801h44.997V206.601z"
					/>
			</g>
		</g>
		<g id="Pencil_00000039850098441231688970000008625454210322973867_">
			<g>
				<path id="XMLID_7379_" style="fill:#FFA8A7;" d="M252.515,206.862l-19.514,31.275c-0.567,0.912,0.342,2.021,1.345,1.645
					l34.713-13.027L252.515,206.862z"/>
				<path id="XMLID_7378_" style="fill:#263238;" d="M234.346,239.782c-1.003,0.376-1.912-0.733-1.345-1.645l3.81-6.106l0,0
					c0.44,2.285,2.121,4.132,4.353,4.787l0.608,0.176L234.346,239.782z"/>
			</g>
			<path id="XMLID_7377_" style="fill:#BA68C8;" d="M435.921,90.439l-2.641,2.158l-3.178,2.619L269.066,226.757
				c-4.153-0.149-7.938-2.29-10.854-5.218c-4.453-4.442-6.909-10.714-5.685-14.664L413.499,75.393l6.091-4.983
				C415.826,73.855,432.098,93.842,435.921,90.439z"/>
			<g>
				<path id="XMLID_7376_" style="fill:#EBEBEB;" d="M425.895,98.693l-5.907,4.815c-1.668,1.452-5.743-1.298-9.557-5.197
					c-5.08-5.165-8.921-12.987-6.719-14.914l4.348-3.557l1.576-1.245c-2.205,1.929,1.634,9.755,6.714,14.92
					c3.661,3.73,7.582,6.411,9.347,5.312l0.016-0.014C425.782,98.791,425.837,98.75,425.895,98.693z"/>
				<path id="XMLID_7375_" style="fill:#BA68C8;" d="M424.41,99.882c-3.862,3.38-20.124-16.718-16.264-20.098l5.898-4.84
					c-3.862,3.381,12.398,23.477,16.259,20.097L424.41,99.882z"/>
			</g>
			<g>
				<path id="XMLID_7374_" style="fill:#EBEBEB;" d="M435.921,90.439l-5.818,4.778c-3.768,3.344-19.624-15.917-16.603-19.823
					c0.042-0.076,0.116-0.148,0.191-0.217l5.9-4.766C415.826,73.855,432.098,93.842,435.921,90.439z"/>
				<path id="XMLID_7373_" style="opacity:0.15;" d="M233.151,239.501l-0.149-1.364l22.77-19.411l167.645-136.91
					c-0.289-0.381-0.24-0.586,0.081-0.644c4.246,5.748,10.284,11.17,12.424,9.267l-2.641,2.158l-3.178,2.619L269.066,226.757
					l-0.007,0l-34.712,13.025C233.878,239.958,233.436,239.802,233.151,239.501z"/>
			</g>
			<g>
				<path id="XMLID_7372_" style="fill:#F28F8F;" d="M460.63,70.183l-24.709,20.256c-1.634,1.455-5.683-1.242-9.489-5.091
					c-5.099-5.151-9.003-12.97-6.842-14.937c0,0,0.002-0.015,0.021-0.029l24.797-20.311c4.948-4.024,14.348,4.998,17.159,12.667
					C462.639,65.599,462.566,68.315,460.63,70.183z"/>
				<path id="XMLID_7369_" style="opacity:0.1;" d="M452.004,68.665c-5.273-3.715-9.194-10.63-8.759-15.448
					c0.159-1.768,0.887-3.003,1.999-3.679c5.106-2.518,13.663,5.944,16.323,13.199c1.053,2.807,0.99,5.467-0.838,7.333
					C458.853,71.575,455.578,71.183,452.004,68.665z"/>
			</g>
		</g>
		<g id="Top_18_">
			<g>
				<path style="fill:#FFBDA7;" d="M387.593,108.707c-2.362-2-3.679-8.281-2.495-11.702c1.185-3.421,5.997-11.537,6.643-21.34
					c0.645-9.802-12.55-24.849-23.916-23.665c-11.366,1.185-17.419,7.47-20.483,15.969c-1.866,5.178-0.441,5.897-1.16,8.875
					c-1.417,5.864-2.781,13.885-0.256,21.719c1.293,4.011,4.385,6.001,7.681,6.658c4.004,0.797,7.357,0.241,7.357,0.241
					s0.286,5.022,0.056,7.609c-0.293,3.294-3.294,3.384-3.294,3.384S389.955,110.707,387.593,108.707z"/>
				<path style="fill:#B16668;" d="M354.355,92.666c0.535,1.856,2.473,2.927,4.329,2.392c1.856-0.535,2.927-2.473,2.392-4.329
					L354.355,92.666z"/>
				<path style="fill:#F28F8F;" d="M356.981,95.101c0.656-1.752,2.273-3.03,4.213-3.189c-0.089,1.435-1.049,2.726-2.509,3.147
					C358.108,95.225,357.529,95.22,356.981,95.101z"/>
				<g>
					<g id="XMLID_00000066487314095291281910000014616686087297738673_">
						<path id="XMLID_00000082349758475849054080000004180326495058185625_" style="fill:#263238;" d="M361.618,79.297
							c-0.314,0.994,0.208,2.043,1.165,2.342c0.958,0.3,1.988-0.263,2.303-1.257c0.314-0.994-0.207-2.043-1.165-2.343
							C362.963,77.741,361.933,78.303,361.618,79.297z"/>
						<path id="XMLID_00000086685257491478976370000003590098535520153990_" style="fill:#263238;" d="M361.763,72.516l4.146,1.584
							c0.413-1.185-0.182-2.501-1.327-2.938C363.437,70.724,362.175,71.33,361.763,72.516z"/>
						<path id="XMLID_00000141436452784683223060000016577226536165370762_" style="fill:#263238;" d="M347.983,73.505l4.166-1.628
							c-0.409-1.176-1.674-1.766-2.825-1.316C348.173,71.01,347.573,72.328,347.983,73.505z"/>
						<path id="XMLID_00000067959287560808016970000008085004268350598070_" style="fill:#263238;" d="M348.812,78.435
							c0.004,0.957,0.755,1.727,1.677,1.72c0.921-0.007,1.664-0.788,1.659-1.745c-0.004-0.957-0.755-1.728-1.676-1.721
							C349.551,76.696,348.808,77.477,348.812,78.435z"/>
						<path style="fill:#F0997A;" d="M347.375,86.596l6.483,2.905l2.047-12.726C353.497,75.905,350.371,81.746,347.375,86.596z"/>
					</g>
				</g>
				<path style="fill:#F0997A;" d="M360.964,105.462c0,0,6.145-0.921,7.886-1.913c4.728-2.694,6.447-4.784,7.502-7.737
					c-0.703,3.378-2.277,7.059-6.955,9.409c-2.918,1.466-8.298,2.524-8.298,2.524L360.964,105.462z"/>
				<path style="fill:#263238;" d="M394.538,70.64c-0.269-2.033-1.544-4.594-3.04-5.678c-0.278-0.221-0.566-0.374-0.854-0.46
					c1.458-9.112-5.563-12.824-9.198-13.428c-1.391-0.23-3.693-0.585-5.035-1.046c-0.461-0.153-0.854-0.364-1.19-0.595
					c-1.132-0.787-1.745-1.909-3.021-2.849c-2.849-2.1-7.404-1.842-8.901,1.746c-1.947-2.206-4.383-1.976-7.145-1.074
					c-1.727,0.566-2.81,1.774-3.223,3.232c-0.211,0.777-0.249,1.611-0.096,2.455c-3.511-1.669-6.522,0.518-7.222,2.599
					c-0.086,0.23-0.134,0.46-0.153,0.681c-0.029,0.259-0.029,0.499-0.029,0.748c-0.01,1.324,0.173,2.494-0.643,3.788
					c-0.182,0.288-0.393,0.528-0.623,0.719c-1.18,1.017-2.868,0.93-3.52-0.144c-0.23,2.34,0.786,4.047,3.299,3.75
					c-0.786,1.314-0.901,2.973-0.355,4.47c0.48,1.333,1.583,2.244,2.753,2.695c0.058-1.036,0.297-2.35,0.998-4.278
					c0.355-0.978,0.748-1.928,1.18-2.849c1.429,0.633,3.146,1.113,5.16,1.429c9.486,1.487,16.881-0.873,19.23-1.89
					c-0.94,2.005-1.669,4.575-2.072,6.608c-0.403,2.024,0.537,4.565,1.707,5.668c0.651,0.609,0.416,1.706,0.246,2.466
					c-0.219,0.979-0.633,1.857-0.56,2.871c0.01,0.145,0.027,0.291,0.082,0.425c0.362,0.895,1.586,1.503,2.4,0.817
					c0.719-0.606,1.191-1.518,1.592-2.35c2.254-4.68,7.126-4.805,9.112-2.465c1.985,2.35,1.899,4.767,0,8.968
					c-1.276,2.82-4.211,4.21-6.388,3.299c-0.384-0.163-0.739-0.393-1.065-0.7c-0.067,1.813,0.409,4.225,2.28,5.577
					c1.803,1.314,4.241,1.259,4.856,1.156c0.566-1.65,1.966-4.354,3.338-7.826c1.007-1.726,2.034-3.405,2.849-4.997
					c0.01-0.019,0.019-0.029,0.019-0.038c0.278-0.508,0.518-1.017,0.729-1.506C393.972,78.15,395.065,74.697,394.538,70.64z"/>
			</g>
			<path style="fill:#37474F;" d="M391.433,109.234c11.984-1.119,17.155,2.985,20.172,6.527c3.017,3.542,16.576,25.969,21.993,38.67
				c2.189,5.132,3.411,9.173-1.28,13.784c-5.012,4.927-28.071,24.457-28.071,24.457l-8.452-13.292l16.109-21.203l-14.045-23.012
				L391.433,109.234z"/>
			<g>
				<path style="fill:#455A64;" d="M398.196,110.978c6.072,2.97,10.297,15.093,10.833,24.285c0.417,7.147-1.159,16.511-2.166,29.877
					c-0.317,4.211-0.6,10.035-0.175,18.293c0.326,6.317,0.847,17.421,0.847,17.421s-5.985,12.145-27.616,14.289
					c-31.449,3.118-44.03-12.332-44.03-12.332s2.174-6.977,2.428-32.98c0.19-19.445-1.767-38.201,2.074-45.134
					c1.657-2.302,1.643-4.595,6.015-6.214c3.039-1.125,16.656-4.45,22.029-5.6C386.257,109.067,391.846,107.872,398.196,110.978z"/>
			</g>
			<path style="fill:#37474F;" d="M357.949,115.469c2.744,0.697,4.028,1.367,8.152,2.289c7.032,1.572,12.997,0.433,17.585-1.932
				c5.098-2.628,6.028-6.124,6.028-6.124s-2.159-3.814-3.005-5.065c-0.825-1.219-1.666-1.121-1.666-1.121l0.368,1.454
				c0,0-0.046,2.42-5.853,3.89c-5.975,1.513-15.69,1.634-18.472,0.803l-0.009-0.815c-1.441,0.384-1.893,1.446-3.531,3.663
				c-1.728,2.339-3.246,3.944-3.246,3.944L357.949,115.469z"/>
			<g>
				<path style="fill:#FFA8A7;" d="M278.119,194.56c-5.268,1.258-7.743,3.111-10.309,3.412c-2.566,0.301-4.537,0.144-4.537,0.144
					l-4.819,3.917c0,0,0.975-8.375,2.43-11.517c1.456-3.142,2.729-1.257,3.691-3.195c0.963-1.938,0.747-3.331,2.838-4.083
					c2.091-0.752,1.612-2.678,4.847-3.266c3.236-0.588,16.098,1.303,16.098,1.303L278.119,194.56z"/>
				<path style="fill:#37474F;" d="M347.126,118.238c-13.397,3.005-16.756,6.414-23.104,18.42
					c-7.139,13.501-15.908,30.73-15.908,30.73s-18.223,7.341-29.079,11.226c-3.509,1.256-10.17,17.776-4.362,18.172
					c0,0,29.756-5.192,38.565-6.906c10.596-2.061,12.27-4.198,18.008-12.927c5.738-8.73,18.78-33.582,18.78-33.582
					S356.16,125.197,347.126,118.238z"/>
			</g>
		</g>
	</g>
</g>
</svg>
